#!OML:ASF F:\VICON\USERDATA\INSTALL\Justin_Nancy\Justin_Nancy.ASF
:FULLY-SPECIFIED
:DEGREES
1
root 11.5381 17.4685 -26.3133 2.40153 -1.67091 -4.6256
lowerback 5.70301 0.931939 3.91895
upperback 0.0549042 1.60332 3.21596
thorax -3.12964 0.760923 0.988354
lowerneck -14.1682 -4.14919 -9.18837
upperneck 18.8788 -4.7764 5.50199
head 8.58036 -2.3592 2.81926
rclavicle 1.39646e-014 6.36111e-015
rhumerus -23.921 -6.02759 -80.4425
rradius 34.0402
rwrist 4.42903
rhand -13.085 11.2137
rfingers 7.12502
rthumb 13.0113 -18.3605
lclavicle 1.39646e-014 6.36111e-015
lhumerus -34.4972 14.7126 84.5078
lradius 23.4863
lwrist -11.0308
lhand -14.2619 25.5625
lfingers 7.12502
lthumb 11.8766 55.2057
rfemur 7.01337 5.11974 30.748
rtibia 13.0604
rfoot -13.3136 -6.61737
rtoes -0.333441
lfemur -31.2509 -6.30561 -11.4361
ltibia 20.828
lfoot -10.9536 10.6654
ltoes -8.70974
2
root 11.5537 17.4662 -26.1726 2.5899 -1.61605 -4.73772
lowerback 5.57553 0.952001 4.0198
upperback 0.00214687 1.63047 3.19419
thorax -3.10899 0.772663 0.909234
lowerneck -14.4395 -4.15739 -9.25679
upperneck 19.2575 -4.80169 5.69569
head 8.76662 -2.35506 2.89375
rclavicle -7.70291e-015 -1.98785e-014
rhumerus -23.7802 -6.11013 -80.4866
rradius 33.8024
rwrist 4.25843
rhand -13.8855 12.1458
rfingers 7.12502
rthumb 12.2395 -17.4761
lclavicle -7.70291e-015 -1.98785e-014
lhumerus -34.6746 16.3485 83.3256
lradius 23.5368
lwrist -16.1472
lhand -8.0324 25.4174
lfingers 7.12502
lthumb 17.8777 54.6157
rfemur 7.70782 4.8176 30.7674
rtibia 12.2665
rfoot -12.8418 -6.50114
rtoes -2.93129
lfemur -31.7054 -7.5114 -10.7811
ltibia 20.5298
lfoot -12.6922 11.7531
ltoes -7.03706
3
root 11.5761 17.4513 -26.0218 2.74905 -1.68304 -4.81385
lowerback 5.32908 1.01086 4.2264
upperback -0.0035968 1.70304 3.10545
thorax -2.96686 0.806982 0.701135
lowerneck -14.5502 -4.10163 -9.3705
upperneck 19.3459 -4.75306 5.98251
head 8.82238 -2.31002 3.0172
rclavicle -1.83876e-014 -1.31198e-014
rhumerus -23.6546 -6.46946 -80.5339
rradius 33.4593
rwrist 4.45619
rhand -14.9301 12.641
rfingers 7.12502
rthumb 11.2322 -17.0383
lclavicle -1.83876e-014 -1.31198e-014
lhumerus -34.5391 14.9454 84.1603
lradius 23.2609
lwrist -11.7063
lhand -11.7076 28.1818
lfingers 7.12502
lthumb 14.3387 57.6667
rfemur 8.36855 4.66961 30.7129
rtibia 11.7333
rfoot -12.6509 -6.24065
rtoes -4.32414
lfemur -32.0199 -8.56978 -10.2558
ltibia 20.2867
lfoot -13.8874 13.0732
ltoes -8.44785
4
root 11.5961 17.4381 -25.8802 2.89879 -1.60101 -4.95646
lowerback 5.21583 0.937785 4.40342
upperback -0.0479085 1.61189 3.12883
thorax -2.94674 0.759133 0.635283
lowerneck -14.6382 -4.08986 -9.43075
upperneck 19.316 -4.72973 6.0588
head 8.82964 -2.29405 3.05517
rclavicle 4.96962e-017 3.97569e-016
rhumerus -23.5329 -6.56834 -80.5885
rradius 33.5479
rwrist 4.83
rhand -15.0573 13.3561
rfingers 7.12502
rthumb 11.1095 -16.3298
lclavicle 4.96962e-017 3.97569e-016
lhumerus -34.5295 14.6297 84.4868
lradius 23.1118
lwrist -9.62466
lhand -14.7592 28.4726
lfingers 7.12502
lthumb 11.397 58.1429
rfemur 9.0835 4.77577 30.8133
rtibia 11.0646
rfoot -12.3697 -6.12612
rtoes -4.91551
lfemur -32.3028 -7.57438 -10.5663
ltibia 20.2184
lfoot -13.6139 12.3374
ltoes -9.14918
5
root 11.6133 17.4386 -25.7395 3.02837 -1.56735 -5.09498
lowerback 5.31085 0.883813 4.47943
upperback -0.15336 1.55894 3.18914
thorax -3.11035 0.728556 0.656936
lowerneck -14.8818 -4.09079 -9.42495
upperneck 19.4776 -4.71228 6.04437
head 8.92747 -2.28413 3.05048
rclavicle 2.06736e-014 1.23246e-014
rhumerus -23.5648 -6.54223 -80.6194
rradius 33.8293
rwrist 4.94523
rhand -14.2966 12.7065
rfingers 7.12502
rthumb 11.8431 -16.9386
lclavicle 2.06736e-014 1.23246e-014
lhumerus -34.656 15.618 83.9469
lradius 22.9314
lwrist -11.7847
lhand -14.2409 28.5317
lfingers 7.12502
lthumb 11.8968 58.1737
rfemur 9.67436 4.84596 30.883
rtibia 10.6147
rfoot -12.085 -5.98316
rtoes -5.27936
lfemur -32.4003 -6.07214 -11.1222
ltibia 20.2513
lfoot -12.6512 11.1709
ltoes -3.3813
6
root 11.6301 17.4373 -25.5964 2.99091 -1.34532 -5.16167
lowerback 5.40513 0.774304 4.54834
upperback 0.0724223 1.41278 3.22791
thorax -2.93188 0.659892 0.669635
lowerneck -16.1384 -4.18285 -9.45211
upperneck 20.0619 -4.70805 5.93338
head 9.3583 -2.27932 3.00979
rclavicle -9.44227e-016 -1.27222e-014
rhumerus -22.8848 -6.68913 -80.7113
rradius 33.8618
rwrist 5.01386
rhand -13.2258 10.2206
rfingers 7.12502
rthumb 12.8756 -19.3622
lclavicle -9.44227e-016 -1.27222e-014
lhumerus -34.1286 15.5638 84.2883
lradius 22.6735
lwrist -10.8265
lhand -14.4398 30.0905
lfingers 7.12502
lthumb 11.705 59.7435
rfemur 10.3157 4.83677 30.9766
rtibia 10.2823
rfoot -11.6055 -5.98356
rtoes -5.69595
lfemur -32.3989 -4.87298 -11.7468
ltibia 20.4515
lfoot -10.5373 10.3723
ltoes 8.19725
